<svg xmlns="http://www.w3.org/2000/svg" width="78" height="67"><linearGradient id="a" x1="0%" y1="0%" x2="100%" y2="0%" gradientTransform="rotate(90)"><stop offset="0%" stop-color="#d94157"/><stop offset="100%" stop-color="#e95860"/></linearGradient><path fill="url(#a)" d="M.844 64.487c1.228.362 2.483.672 3.769.918a39.166 39.166 0 0022.85-2.437c-6.36-.313-14.128-2.506-20.385-5.662L.844 64.487z"/><path fill="#7B3150" d="M76.746 18.397c-.031-.937-.347-1.65-.798-1.694-.549-.052-1.09.904-1.208 2.136-.085.893.074 1.687.378 2.075.225.286.296.662.193 1.009-1.991 6.666-8.401 11.858-11.247 13.895a3.222 3.222 0 00-.893-.879c8.844-10.313 7.599-17.177 6.862-19.315-.276-.896-.769-1.501-1.215-1.425-.544.094-.814 1.158-.604 2.378.151.885.515 1.608.909 1.904.29.216.459.56.451.922-.155 6.289-4.113 12.363-6.505 15.475-.828-.511-1.904-.707-2.996-.455-1.144.264-2.058.961-2.564 1.84a1.55 1.55 0 01-.675.642 23.715 23.715 0 00-5.057 3.256 23.45 23.45 0 00-2.069 1.959 7.93 7.93 0 00-1.36 2.015c-.049.103-.1.204-.149.306v.012l-.2.386c-.013.026-.479.888-.502.928a27.953 27.953 0 01-1.694 2.632l-.011.012-.006.01c-.404.609-.754 1.257-.985 1.951a22.665 22.665 0 00-.48 1.623c-.706 2.736-1.019 5.908-.719 9.576.147 1.818 2.834 1.813 2.976-.006l.006-.096c.138-2.23.212-5.98 1.789-9.143.963-1.93 2.655-3.385 4.643-4.227 1.719-.729 4.552-2.431 5.849-6.038.228-.634.826-1.081 1.497-1.038.394.024.803-.007 1.214-.102 2.033-.469 3.346-2.305 2.933-4.098a2.971 2.971 0 00-.407-.955c12.159-7.877 12.797-15.151 12.644-17.471m-27.313 27.21"/><linearGradient id="b" x1="0%" y1="0%" x2="100%" y2="0%" gradientTransform="rotate(90)"><stop offset="0%" stop-color="#d04057"/><stop offset="100%" stop-color="#541a32"/></linearGradient><path fill="url(#b)" d="M28.866 44.082c.412.225.806.45 1.193.678 2.464.92 5.013 2.469 7.65 4.854 0 0 1.777 2.225 2.018 5.119.188-.186.374-.373.558-.563.494-2.684.292-5.984-1.654-9.654-4.005-7.557-14.915-16.875-7.939-31.386-3.737-3.292-8.896-6.738-15.835-9.331-.001-.001-15.965 25.769 14.009 40.283"/><linearGradient id="c" x1="0%" y1="0%" x2="100%" y2="0%" gradientTransform="rotate(90)"><stop offset="0%" stop-color="#e13e56"/><stop offset="100%" stop-color="#f16e6a"/></linearGradient><path fill="url(#c)" d="M30.691 13.129c-6.976 14.512 3.935 23.83 7.939 31.386 1.946 3.67 2.148 6.971 1.654 9.654.115-.119.231-.235.345-.356a39.157 39.157 0 0010.068-19.638 39.193 39.193 0 00-3.656-25.446 62.133 62.133 0 00-2.189-3.726A39.398 39.398 0 0040.922 0c-5.081 4.81-8.325 9.163-10.231 13.129"/><linearGradient id="d" x1="0%" y1="0%" x2="100%" y2="0%" gradientTransform="rotate(90)"><stop offset="0%" stop-color="#d93151"/><stop offset="100%" stop-color="#ea5a61"/></linearGradient><path fill="url(#d)" d="M30.691 13.129c-6.976 14.512 3.935 23.83 7.939 31.386 1.946 3.67 2.148 6.971 1.654 9.654.115-.119.231-.235.345-.356a39.18 39.18 0 006.554-9.318c.015-2.166-.48-4.612-1.88-7.253-4.006-7.559-14.915-16.875-7.94-31.387.889-1.85 2.075-3.786 3.597-5.813-.013-.014-.023-.029-.038-.042-5.081 4.81-8.325 9.163-10.231 13.129"/><linearGradient id="e" x1="0%" y1="0%" x2="100%" y2="0%" gradientTransform="rotate(90)"><stop offset="0%" stop-color="#e8545e"/><stop offset="100%" stop-color="#821442"/></linearGradient><path fill="url(#e)" d="M14.794 3.902a.32.32 0 00-.019.031c-.01.017-.022.036-.033.057l-.043.074-.028.048-.062.111-.029.051c-.023.045-.05.092-.077.143a.612.612 0 00-.027.05l-.097.178c-.008.016-.017.031-.024.047l-.112.215-.021.042-.128.249-.02.039a72.39 72.39 0 01-.157.315c-.051.105-.103.214-.155.327-.005.006-.008.014-.011.022-.056.117-.11.238-.169.363l-.005.011c-1.071 2.351-2.483 6.188-2.87 10.69l-.002.037a32.452 32.452 0 00-.055.788c-.013.226-.023.452-.03.681l-.003.111c-.005.219-.009.438-.01.658l.001.14c.002.212.004.424.01.638l.007.166a33.469 33.469 0 00.04.809c.015.202.029.404.048.607l.021.207c.02.198.042.396.066.596l.03.223c.025.195.055.39.084.585l.041.24c.032.191.066.382.104.574.016.085.034.169.052.255.039.187.08.375.123.563l.064.266c.047.186.093.371.144.557l.078.278a16.189 16.189 0 00.256.835 17.993 17.993 0 00.291.838c.065.176.134.354.205.53a19.646 19.646 0 00.493 1.143c.079.173.162.345.247.517.053.106.104.212.159.318.087.17.178.34.271.51a21.567 21.567 0 00.67 1.155c.102.166.208.331.315.494a21.356 21.356 0 00.559.821c.08.113.159.225.241.337.118.16.241.32.363.479l.265.34c.126.157.256.315.387.471.096.114.19.229.288.341.134.155.274.31.414.465.103.113.205.228.31.341.144.153.292.306.44.457.112.114.222.229.336.342.152.15.309.301.467.451.12.113.238.228.36.34.161.148.329.295.496.442.128.114.254.228.385.339.171.146.348.291.525.437.137.112.27.224.409.336.182.144.37.287.559.43.144.11.285.222.433.331.194.143.396.285.595.428.151.106.3.215.454.321.206.142.421.283.634.423.158.105.312.211.475.315.221.142.451.282.68.423.163.1.32.202.488.301.244.146.497.29.749.434.16.093.315.187.479.277.282.157.574.311.864.467.145.075.283.154.43.229.44.229.892.456 1.355.681.412.225.806.45 1.193.678 5.823 3.412 8.753 7.059 8.869 10.74a37.026 37.026 0 001.357-1.331c.494-2.684.292-5.984-1.654-9.654a17.43 17.43 0 00-.3-.545l-.054-.096c-.1-.176-.203-.352-.309-.529-.021-.034-.044-.069-.063-.104a33.895 33.895 0 00-.337-.547l-.022-.035a35.188 35.188 0 00-.406-.633l-.366-.554-.076-.114-.378-.562-.052-.074-.37-.543a2.299 2.299 0 01-.065-.096c-.141-.203-.28-.408-.423-.613a95.207 95.207 0 00-.445-.649c-.017-.022-.032-.048-.049-.071l-.41-.6a.642.642 0 00-.039-.057l-.413-.616c-.026-.038-.053-.077-.078-.116-.139-.206-.274-.413-.411-.623l-.063-.096c-.138-.211-.274-.424-.411-.637a64.262 64.262 0 01-.427-.681c-.023-.041-.05-.08-.074-.121a41.26 41.26 0 01-.39-.649l-.068-.115a47.152 47.152 0 01-.396-.689c-17.24-8.705-18.611-21.223-16.91-29.906l-.033.057"/><linearGradient id="f" x1="0%" y1="0%" x2="100%" y2="0%" gradientTransform="rotate(90)"><stop offset="0%" stop-color="#d93151"/><stop offset="100%" stop-color="#a52651"/></linearGradient><path fill="url(#f)" d="M0 52.708c1.911 1.664 4.352 3.223 7.077 4.598 6.257 3.156 14.024 5.349 20.385 5.662A39.582 39.582 0 0038.929 55.5c-.116-3.682-3.046-7.328-8.869-10.74a17.156 17.156 0 00-6.056-1.104C14.673 43.655 6.714 51.085 0 52.708"/><linearGradient id="g" x1="0%" y1="0%" x2="100%" y2="0%" gradientTransform="rotate(90)"><stop offset="0%" stop-color="#ad3b55"/><stop offset="100%" stop-color="#941e50"/></linearGradient><path fill="url(#g)" d="M21.853 43.784c5.956 3.705 3.233 13.489-4.273 13.083-.364-.02-.726-.048-1.09-.085-4.04-.407-8.151-1.228-11.875-2.396a44.451 44.451 0 01-4.554-1.693H.058c-.016.021-.013.018-.026.04.123.106.254.214.382.319.115.096.226.191.343.285.138.111.282.219.425.328.12.092.237.188.361.279.146.107.298.214.448.32.127.092.252.185.382.273.155.108.316.213.477.319.132.088.261.177.395.264.165.106.335.21.504.315.135.084.268.17.405.254.176.107.359.211.54.316.135.08.266.16.403.236.216.123.438.244.659.365.106.057.209.117.316.174.33.178.666.352 1.006.523 6.257 3.156 14.024 5.349 20.385 5.662a39.582 39.582 0 0011.467-7.468 7.226 7.226 0 00-.047-.586l-.024-.199c-.48-3.414-3.388-6.785-8.798-9.955a17.147 17.147 0 00-6.055-1.104c-.727.003-1.443.048-2.153.131"/></svg>