<?xml version="1.0" encoding="UTF-8"?>
<!DOCTYPE svg PUBLIC "-//W3C//DTD SVG 1.1//EN" "http://www.w3.org/Graphics/SVG/1.1/DTD/svg11.dtd">
<svg xmlns="http://www.w3.org/2000/svg" version="1.1" width="159px" height="134px" style="shape-rendering:geometricPrecision; text-rendering:geometricPrecision; image-rendering:optimizeQuality; fill-rule:evenodd; clip-rule:evenodd" xmlns:xlink="http://www.w3.org/1999/xlink">
<g><path style="opacity:1" fill="#d8d8da" d="M -0.5,-0.5 C 25.5,-0.5 51.5,-0.5 77.5,-0.5C 76.5,1.16667 75.1667,2.5 73.5,3.5C 71.3157,2.73373 68.9823,2.06706 66.5,1.5C 44.2912,0.93869 21.9578,0.93869 -0.5,1.5C -0.5,0.833333 -0.5,0.166667 -0.5,-0.5 Z"/></g>
<g><path style="opacity:1" fill="#dad9db" d="M 80.5,-0.5 C 106.5,-0.5 132.5,-0.5 158.5,-0.5C 158.5,0.166667 158.5,0.833333 158.5,1.5C 133.425,1.17669 108.425,1.51003 83.5,2.5C 82.1667,1.83333 81.1667,0.833333 80.5,-0.5 Z"/></g>
<g><path style="opacity:1" fill="#fdfcfc" d="M 73.5,3.5 C 67.5827,9.66851 62.916,16.6685 59.5,24.5C 57.1838,23.1944 54.8505,21.8611 52.5,20.5C 50.0869,18.1128 47.4202,15.9461 44.5,14C 39,11.5 33.5,9 28,6.5C 25.9743,7.52016 24.6409,9.18682 24,11.5C 22.5699,14.3527 21.7366,17.3527 21.5,20.5C 20.1127,22.8766 19.2794,25.5432 19,28.5C 17.0813,39.6369 18.9146,49.9702 24.5,59.5C 29.8887,69.8887 37.8887,77.5553 48.5,82.5C 49.6594,84.2503 51.326,85.2503 53.5,85.5C 49.5,85.8333 45.5,86.1667 41.5,86.5C 32.1059,87.5198 23.4393,90.5198 15.5,95.5C 10.6592,98.9195 5.32591,101.253 -0.5,102.5C -0.5,68.8333 -0.5,35.1667 -0.5,1.5C 21.9578,0.93869 44.2912,0.93869 66.5,1.5C 68.9823,2.06706 71.3157,2.73373 73.5,3.5 Z"/></g>
<g><path style="opacity:1" fill="#fdfcfd" d="M 158.5,1.5 C 158.5,45.5 158.5,89.5 158.5,133.5C 105.5,133.5 52.5,133.5 -0.5,133.5C -0.5,131.5 -0.5,129.5 -0.5,127.5C 17.3206,132.177 34.6539,131.177 51.5,124.5C 60.8851,121.148 68.8851,115.815 75.5,108.5C 77.1898,108.144 78.1898,107.144 78.5,105.5C 79.5,105.167 80.1667,104.5 80.5,103.5C 85.8765,98.4392 90.0432,92.4392 93,85.5C 102.543,64.0257 102.876,42.359 94,20.5C 92.5814,18.0071 91.0814,15.6737 89.5,13.5C 88.2744,9.37996 86.2744,5.71329 83.5,2.5C 108.425,1.51003 133.425,1.17669 158.5,1.5 Z"/></g>
<g><path style="opacity:1" fill="#c33e54" d="M 52.5,20.5 C 52.8288,22.9908 53.8288,25.1575 55.5,27C 52.8121,27.5481 50.6454,26.7148 49,24.5C 48.6667,25.1667 48.3333,25.8333 48,26.5C 46.2069,24.1944 44.0403,23.8611 41.5,25.5C 38.1452,24.4845 34.8119,23.4845 31.5,22.5C 31.6495,23.552 31.4828,24.552 31,25.5C 30.7978,23.7444 30.2978,22.0777 29.5,20.5C 28.914,20.7093 28.414,21.0426 28,21.5C 27.5626,28.2668 28.0626,34.9335 29.5,41.5C 27.3867,42.2563 25.3867,42.4229 23.5,42C 22.8971,43.8254 22.2304,45.6587 21.5,47.5C 20.2833,38.4916 20.2833,29.4916 21.5,20.5C 21.7366,17.3527 22.5699,14.3527 24,11.5C 24.6409,9.18682 25.9743,7.52016 28,6.5C 33.5,9 39,11.5 44.5,14C 47.4202,15.9461 50.0869,18.1128 52.5,20.5 Z"/></g>
<g><path style="opacity:1" fill="#e44b5b" d="M 89.5,13.5 C 90.6733,15.3405 90.6733,17.1739 89.5,19C 89.6465,20.7271 90.3131,20.8938 91.5,19.5C 91.9626,22.5828 93.1292,25.2494 95,27.5C 95.8215,30.1168 96.3215,32.7835 96.5,35.5C 89.825,35.3337 83.1583,35.5004 76.5,36C 77.5,36.8333 78.5,37.6667 79.5,38.5C 84.7921,39.4948 90.1254,39.8282 95.5,39.5C 95.5,40.5 95.5,41.5 95.5,42.5C 89.6973,41.9132 84.1973,42.5798 79,44.5C 78.5172,43.552 78.3505,42.552 78.5,41.5C 73.0519,43.7616 72.3852,47.0949 76.5,51.5C 76.2907,52.086 75.9574,52.586 75.5,53C 77.3444,56.3749 78.6777,59.8749 79.5,63.5C 80.8333,63.5 82.1667,63.5 83.5,63.5C 85.467,68.1092 87.467,72.7759 89.5,77.5C 89.1472,79.7315 88.3139,81.7315 87,83.5C 85.6759,80.7563 83.5092,79.423 80.5,79.5C 79.4911,82.5274 79.4911,85.5274 80.5,88.5C 81.1667,86.5 81.8333,84.5 82.5,82.5C 85.9214,87.4535 84.5881,90.1202 78.5,90.5C 78.7704,95.0275 79.4371,99.3609 80.5,103.5C 80.1667,104.5 79.5,105.167 78.5,105.5C 79.0051,97.6363 77.0051,90.6363 72.5,84.5C 69.2484,79.6657 66.2484,74.6657 63.5,69.5C 61.623,64.367 59.4563,59.367 57,54.5C 56.5034,52.1902 56.3367,49.8568 56.5,47.5C 57.8333,47.5 59.1667,47.5 60.5,47.5C 60.5041,49.8421 61.3375,51.8421 63,53.5C 63.4828,52.552 63.6495,51.552 63.5,50.5C 66.5,50.5 69.5,50.5 72.5,50.5C 71.7681,46.3043 70.4348,42.3043 68.5,38.5C 66.6398,29.4813 67.6398,20.8146 71.5,12.5C 72.3857,13.325 72.719,14.325 72.5,15.5C 74.9363,15.683 77.103,15.0163 79,13.5C 79.4888,15.6044 80.6555,15.9378 82.5,14.5C 83.6473,14.8178 84.4806,15.4844 85,16.5C 85.805,13.7814 87.305,12.7814 89.5,13.5 Z"/></g>
<g><path style="opacity:1" fill="#783d54" d="M 140.5,58.5 C 140.167,58.5 139.833,58.5 139.5,58.5C 142.83,53.8474 145.663,48.8474 148,43.5C 147.89,39.871 147.724,36.2044 147.5,32.5C 148.5,32.5 149.5,32.5 150.5,32.5C 150.894,42.6599 147.56,51.3266 140.5,58.5 Z"/></g>
<g><path style="opacity:1" fill="#de4258" d="M 77.5,-0.5 C 78.5,-0.5 79.5,-0.5 80.5,-0.5C 81.1667,0.833333 82.1667,1.83333 83.5,2.5C 86.2744,5.71329 88.2744,9.37996 89.5,13.5C 87.305,12.7814 85.805,13.7814 85,16.5C 84.4806,15.4844 83.6473,14.8178 82.5,14.5C 80.6555,15.9378 79.4888,15.6044 79,13.5C 77.103,15.0163 74.9363,15.683 72.5,15.5C 72.719,14.325 72.3857,13.325 71.5,12.5C 67.6398,20.8146 66.6398,29.4813 68.5,38.5C 70.4348,42.3043 71.7681,46.3043 72.5,50.5C 69.5,50.5 66.5,50.5 63.5,50.5C 63.6495,51.552 63.4828,52.552 63,53.5C 61.3375,51.8421 60.5041,49.8421 60.5,47.5C 59.1667,47.5 57.8333,47.5 56.5,47.5C 56.3367,49.8568 56.5034,52.1902 57,54.5C 59.4563,59.367 61.623,64.367 63.5,69.5C 61.5879,67.3428 59.9213,65.0094 58.5,62.5C 57.1421,58.7523 55.8087,55.0857 54.5,51.5C 52.9963,41.8233 54.6629,32.8233 59.5,24.5C 62.916,16.6685 67.5827,9.66851 73.5,3.5C 75.1667,2.5 76.5,1.16667 77.5,-0.5 Z"/></g>
<g><path style="opacity:1" fill="#9b2f46" d="M 54.5,51.5 C 55.8087,55.0857 57.1421,58.7523 58.5,62.5C 56.9652,63.7879 55.2985,63.7879 53.5,62.5C 49.5634,58.5921 45.2301,55.2587 40.5,52.5C 37.9043,48.1625 36.4043,43.4958 36,38.5C 36.414,38.0426 36.914,37.7093 37.5,37.5C 40.7079,38.802 44.0412,39.4687 47.5,39.5C 47.3505,38.448 47.5172,37.448 48,36.5C 49.049,38.1066 50.549,38.7733 52.5,38.5C 52.1561,43.1219 52.8227,47.4552 54.5,51.5 Z"/></g>
<g><path style="opacity:1" fill="#875467" d="M 133.5,27.5 C 135.911,27.1367 137.411,28.1367 138,30.5C 139.565,40.8064 137.231,50.1397 131,58.5C 133.64,52.1713 135.474,45.5047 136.5,38.5C 134.646,35.108 133.646,31.4414 133.5,27.5 Z"/></g>
<g><path style="opacity:1" fill="#b83a51" d="M 21.5,20.5 C 20.2833,29.4916 20.2833,38.4916 21.5,47.5C 22.2304,45.6587 22.8971,43.8254 23.5,42C 25.3867,42.4229 27.3867,42.2563 29.5,41.5C 28.0626,34.9335 27.5626,28.2668 28,21.5C 28.414,21.0426 28.914,20.7093 29.5,20.5C 30.2978,22.0777 30.7978,23.7444 31,25.5C 31.4828,24.552 31.6495,23.552 31.5,22.5C 34.8119,23.4845 38.1452,24.4845 41.5,25.5C 44.0403,23.8611 46.2069,24.1944 48,26.5C 48.3333,25.8333 48.6667,25.1667 49,24.5C 50.6454,26.7148 52.8121,27.5481 55.5,27C 53.8288,25.1575 52.8288,22.9908 52.5,20.5C 54.8505,21.8611 57.1838,23.1944 59.5,24.5C 54.6629,32.8233 52.9963,41.8233 54.5,51.5C 52.8227,47.4552 52.1561,43.1219 52.5,38.5C 50.549,38.7733 49.049,38.1066 48,36.5C 47.5172,37.448 47.3505,38.448 47.5,39.5C 44.0412,39.4687 40.7079,38.802 37.5,37.5C 36.914,37.7093 36.414,38.0426 36,38.5C 36.4043,43.4958 37.9043,48.1625 40.5,52.5C 39.0809,52.6389 37.7476,53.1389 36.5,54C 39.6677,54.5823 40.001,55.5823 37.5,57C 35.1817,57.3423 33.015,56.8423 31,55.5C 29.9745,58.6928 27.8078,60.0262 24.5,59.5C 18.9146,49.9702 17.0813,39.6369 19,28.5C 19.2794,25.5432 20.1127,22.8766 21.5,20.5 Z"/></g>
<g><path style="opacity:1" fill="#bd9eab" d="M 139.5,58.5 C 139.833,58.5 140.167,58.5 140.5,58.5C 139.121,61.0735 137.121,62.5735 134.5,63C 136.037,61.2927 137.704,59.7927 139.5,58.5 Z"/></g>
<g><path style="opacity:1" fill="#e85862" d="M 89.5,13.5 C 91.0814,15.6737 92.5814,18.0071 94,20.5C 102.876,42.359 102.543,64.0257 93,85.5C 90.0432,92.4392 85.8765,98.4392 80.5,103.5C 79.4371,99.3609 78.7704,95.0275 78.5,90.5C 84.5881,90.1202 85.9214,87.4535 82.5,82.5C 81.8333,84.5 81.1667,86.5 80.5,88.5C 79.4911,85.5274 79.4911,82.5274 80.5,79.5C 83.5092,79.423 85.6759,80.7563 87,83.5C 88.3139,81.7315 89.1472,79.7315 89.5,77.5C 87.467,72.7759 85.467,68.1092 83.5,63.5C 82.1667,63.5 80.8333,63.5 79.5,63.5C 78.6777,59.8749 77.3444,56.3749 75.5,53C 75.9574,52.586 76.2907,52.086 76.5,51.5C 72.3852,47.0949 73.0519,43.7616 78.5,41.5C 78.3505,42.552 78.5172,43.552 79,44.5C 84.1973,42.5798 89.6973,41.9132 95.5,42.5C 95.5,41.5 95.5,40.5 95.5,39.5C 90.1254,39.8282 84.7921,39.4948 79.5,38.5C 78.5,37.6667 77.5,36.8333 76.5,36C 83.1583,35.5004 89.825,35.3337 96.5,35.5C 96.3215,32.7835 95.8215,30.1168 95,27.5C 93.1292,25.2494 91.9626,22.5828 91.5,19.5C 90.3131,20.8938 89.6465,20.7271 89.5,19C 90.6733,17.1739 90.6733,15.3405 89.5,13.5 Z"/></g>
<g><path style="opacity:1" fill="#a92e4d" d="M 40.5,52.5 C 45.2301,55.2587 49.5634,58.5921 53.5,62.5C 55.2985,63.7879 56.9652,63.7879 58.5,62.5C 59.9213,65.0094 61.5879,67.3428 63.5,69.5C 66.2484,74.6657 69.2484,79.6657 72.5,84.5C 70.4727,84.6621 68.4727,84.4955 66.5,84C 65.0267,83.2904 64.3601,82.1238 64.5,80.5C 61.6495,82.2614 58.4828,83.5947 55,84.5C 52.941,83.3818 50.7743,82.7151 48.5,82.5C 37.8887,77.5553 29.8887,69.8887 24.5,59.5C 27.8078,60.0262 29.9745,58.6928 31,55.5C 33.015,56.8423 35.1817,57.3423 37.5,57C 40.001,55.5823 39.6677,54.5823 36.5,54C 37.7476,53.1389 39.0809,52.6389 40.5,52.5 Z"/></g>
<g><path style="opacity:1" fill="#7a3552" d="M 115.5,67.5 C 119.516,66.8999 123.016,67.8999 126,70.5C 126.702,77.3087 123.536,80.9753 116.5,81.5C 113.215,88.6195 107.882,93.4529 100.5,96C 92.6906,103.416 89.1906,112.583 90,123.5C 88.0624,124.86 86.3957,124.527 85,122.5C 83.8814,112.325 85.548,102.658 90,93.5C 92.503,90.4983 94.503,87.1649 96,83.5C 102.689,78.3024 109.189,72.9691 115.5,67.5 Z"/></g>
<g><path style="opacity:1" fill="#932046" d="M 72.5,84.5 C 77.0051,90.6363 79.0051,97.6363 78.5,105.5C 78.1898,107.144 77.1898,108.144 75.5,108.5C 75.1161,104.396 73.6161,100.729 71,97.5C 65.572,92.8725 59.7386,88.8725 53.5,85.5C 51.326,85.2503 49.6594,84.2503 48.5,82.5C 50.7743,82.7151 52.941,83.3818 55,84.5C 58.4828,83.5947 61.6495,82.2614 64.5,80.5C 64.3601,82.1238 65.0267,83.2904 66.5,84C 68.4727,84.4955 70.4727,84.6621 72.5,84.5 Z"/></g>
<g><path style="opacity:1" fill="#cb3052" d="M 41.5,86.5 C 42.8333,86.5 44.1667,86.5 45.5,86.5C 47.1074,90.941 47.7741,95.6077 47.5,100.5C 44.6703,100.694 42.0037,101.361 39.5,102.5C 39.5,101.5 39.5,100.5 39.5,99.5C 37.4727,99.3379 35.4727,99.5045 33.5,100C 32.1177,104.705 31.4511,104.539 31.5,99.5C 25.6182,99.2323 19.7849,99.5656 14,100.5C 13.5,100.167 13,99.8333 12.5,99.5C 13.325,98.6143 14.325,98.281 15.5,98.5C 15.5,97.5 15.5,96.5 15.5,95.5C 23.4393,90.5198 32.1059,87.5198 41.5,86.5 Z"/></g>
<g><path style="opacity:1" fill="#bd2c51" d="M 15.5,95.5 C 15.5,96.5 15.5,97.5 15.5,98.5C 14.325,98.281 13.325,98.6143 12.5,99.5C 13,99.8333 13.5,100.167 14,100.5C 19.7849,99.5656 25.6182,99.2323 31.5,99.5C 31.4511,104.539 32.1177,104.705 33.5,100C 35.4727,99.5045 37.4727,99.3379 39.5,99.5C 39.5,100.5 39.5,101.5 39.5,102.5C 42.0037,101.361 44.6703,100.694 47.5,100.5C 47.628,102.655 47.128,104.655 46,106.5C 44.0283,107.305 42.5283,108.639 41.5,110.5C 32.9415,111.18 24.4415,111.847 16,112.5C 14.2458,110.75 12.0792,110.083 9.5,110.5C 9.5,109.5 9.5,108.5 9.5,107.5C 6.80645,106.263 3.47311,105.596 -0.5,105.5C -0.5,104.5 -0.5,103.5 -0.5,102.5C 5.32591,101.253 10.6592,98.9195 15.5,95.5 Z"/></g>
<g><path style="opacity:1" fill="#fdf7f8" d="M -0.5,106.5 C 3.50793,108.837 7.50793,111.17 11.5,113.5C 7.5,117.833 3.5,122.167 -0.5,126.5C -0.5,119.833 -0.5,113.167 -0.5,106.5 Z"/></g>
<g><path style="opacity:1" fill="#9d2952" d="M 41.5,86.5 C 45.5,86.1667 49.5,85.8333 53.5,85.5C 59.7386,88.8725 65.572,92.8725 71,97.5C 73.6161,100.729 75.1161,104.396 75.5,108.5C 68.8851,115.815 60.8851,121.148 51.5,124.5C 44.7876,123.658 38.1209,122.491 31.5,121C 24.7256,118.578 18.059,116.078 11.5,113.5C 7.50793,111.17 3.50793,108.837 -0.5,106.5C -0.5,106.167 -0.5,105.833 -0.5,105.5C 3.47311,105.596 6.80645,106.263 9.5,107.5C 9.5,108.5 9.5,109.5 9.5,110.5C 12.0792,110.083 14.2458,110.75 16,112.5C 24.4415,111.847 32.9415,111.18 41.5,110.5C 42.5283,108.639 44.0283,107.305 46,106.5C 47.128,104.655 47.628,102.655 47.5,100.5C 47.7741,95.6077 47.1074,90.941 45.5,86.5C 44.1667,86.5 42.8333,86.5 41.5,86.5 Z"/></g>
<g><path style="opacity:1" fill="#de5463" d="M 11.5,113.5 C 18.059,116.078 24.7256,118.578 31.5,121C 38.1209,122.491 44.7876,123.658 51.5,124.5C 34.6539,131.177 17.3206,132.177 -0.5,127.5C -0.5,127.167 -0.5,126.833 -0.5,126.5C 3.5,122.167 7.5,117.833 11.5,113.5 Z"/></g>
<g><path style="opacity:1" fill="#e7515a" d="M 13.5,117.5 C 15.2252,117.843 15.7252,118.843 15,120.5C 12.8333,122.667 10.6667,124.833 8.5,127C 13.0288,127.972 15.3622,126.138 15.5,121.5C 17.8568,121.663 20.1902,121.497 22.5,121C 21.1118,120.111 21.2785,119.611 23,119.5C 24.5,120 26,120.5 27.5,121C 26.062,121.219 24.7287,121.719 23.5,122.5C 27.6982,124.623 32.0315,126.456 36.5,128C 26.5,128.667 16.5,128.667 6.5,128C 4.84202,127.275 4.34202,126.108 5,124.5C 6.01127,125.337 7.17793,125.67 8.5,125.5C 8.5,124.5 8.5,123.5 8.5,122.5C 11.2639,122.001 12.9305,120.335 13.5,117.5 Z"/></g>
</svg>
